<mxfile host="app.diagrams.net" agent="Mozilla/5.0 (Windows NT 10.0; Win64; x64) AppleWebKit/537.36 (KHTML, like Gecko) Chrome/131.0.0.0 Safari/537.36" version="25.0.1">
  <diagram name="Page-1" id="-mNjKL378xup7t28cfwp">
    <mxGraphModel dx="1434" dy="1915" grid="1" gridSize="10" guides="1" tooltips="1" connect="1" arrows="1" fold="1" page="1" pageScale="1" pageWidth="827" pageHeight="1169" math="0" shadow="0">
      <root>
        <mxCell id="0" />
        <mxCell id="1" parent="0" />
        <mxCell id="VyYTztg2lx75sVMPbfsh-1" value="Re-retrieve once" style="edgeStyle=orthogonalEdgeStyle;rounded=0;orthogonalLoop=1;jettySize=auto;html=1;exitX=0.996;exitY=0.498;exitDx=0;exitDy=0;exitPerimeter=0;entryX=0.498;entryY=0.97;entryDx=0;entryDy=0;entryPerimeter=0;endArrow=none;endFill=0;" edge="1" parent="1" source="VyYTztg2lx75sVMPbfsh-35" target="VyYTztg2lx75sVMPbfsh-30">
          <mxGeometry relative="1" as="geometry">
            <mxPoint x="451" y="332" as="sourcePoint" />
            <mxPoint x="640" y="270" as="targetPoint" />
          </mxGeometry>
        </mxCell>
        <mxCell id="VyYTztg2lx75sVMPbfsh-2" value="" style="edgeStyle=orthogonalEdgeStyle;rounded=0;orthogonalLoop=1;jettySize=auto;html=1;" edge="1" parent="1" source="VyYTztg2lx75sVMPbfsh-3" target="VyYTztg2lx75sVMPbfsh-7">
          <mxGeometry relative="1" as="geometry" />
        </mxCell>
        <mxCell id="VyYTztg2lx75sVMPbfsh-3" value="Loaders" style="rounded=1;whiteSpace=wrap;html=1;" vertex="1" parent="1">
          <mxGeometry x="140" y="90" width="70" height="60" as="geometry" />
        </mxCell>
        <mxCell id="VyYTztg2lx75sVMPbfsh-4" value="" style="edgeStyle=orthogonalEdgeStyle;rounded=0;orthogonalLoop=1;jettySize=auto;html=1;" edge="1" parent="1" source="VyYTztg2lx75sVMPbfsh-5" target="VyYTztg2lx75sVMPbfsh-3">
          <mxGeometry relative="1" as="geometry" />
        </mxCell>
        <mxCell id="VyYTztg2lx75sVMPbfsh-5" value="Your documents" style="html=1;verticalLabelPosition=bottom;align=center;labelBackgroundColor=#ffffff;verticalAlign=top;strokeWidth=2;strokeColor=#0080F0;shadow=0;dashed=0;shape=mxgraph.ios7.icons.documents;" vertex="1" parent="1">
          <mxGeometry x="30" y="80" width="60" height="80" as="geometry" />
        </mxCell>
        <mxCell id="VyYTztg2lx75sVMPbfsh-6" value="" style="edgeStyle=orthogonalEdgeStyle;rounded=0;orthogonalLoop=1;jettySize=auto;html=1;" edge="1" parent="1" source="VyYTztg2lx75sVMPbfsh-7" target="VyYTztg2lx75sVMPbfsh-10">
          <mxGeometry relative="1" as="geometry" />
        </mxCell>
        <mxCell id="VyYTztg2lx75sVMPbfsh-7" value="Chunking" style="rounded=1;whiteSpace=wrap;html=1;" vertex="1" parent="1">
          <mxGeometry x="252" y="90" width="70" height="60" as="geometry" />
        </mxCell>
        <mxCell id="VyYTztg2lx75sVMPbfsh-8" value="" style="group" vertex="1" connectable="0" parent="1">
          <mxGeometry x="360" y="60" width="80" height="100" as="geometry" />
        </mxCell>
        <mxCell id="VyYTztg2lx75sVMPbfsh-9" value="&lt;div&gt;&lt;br&gt;&lt;/div&gt;" style="html=1;verticalLabelPosition=bottom;align=center;labelBackgroundColor=#ffffff;verticalAlign=top;strokeWidth=2;strokeColor=#0080F0;shadow=0;dashed=0;shape=mxgraph.ios7.icons.documents;" vertex="1" parent="VyYTztg2lx75sVMPbfsh-8">
          <mxGeometry x="20" width="60" height="80" as="geometry" />
        </mxCell>
        <mxCell id="VyYTztg2lx75sVMPbfsh-10" value="Chunks" style="html=1;verticalLabelPosition=bottom;align=center;labelBackgroundColor=#ffffff;verticalAlign=top;strokeWidth=2;strokeColor=#0080F0;shadow=0;dashed=0;shape=mxgraph.ios7.icons.documents;" vertex="1" parent="VyYTztg2lx75sVMPbfsh-8">
          <mxGeometry y="20" width="60" height="80" as="geometry" />
        </mxCell>
        <mxCell id="VyYTztg2lx75sVMPbfsh-11" value="" style="edgeStyle=orthogonalEdgeStyle;rounded=0;orthogonalLoop=1;jettySize=auto;html=1;" edge="1" parent="1" source="VyYTztg2lx75sVMPbfsh-12" target="VyYTztg2lx75sVMPbfsh-15">
          <mxGeometry relative="1" as="geometry" />
        </mxCell>
        <mxCell id="VyYTztg2lx75sVMPbfsh-12" value="&lt;div&gt;Document&lt;/div&gt;&lt;div&gt;Embeddings&lt;br&gt;&lt;/div&gt;" style="rounded=1;whiteSpace=wrap;html=1;" vertex="1" parent="1">
          <mxGeometry x="470" y="70" width="80" height="60" as="geometry" />
        </mxCell>
        <mxCell id="VyYTztg2lx75sVMPbfsh-13" value="" style="edgeStyle=orthogonalEdgeStyle;rounded=0;orthogonalLoop=1;jettySize=auto;html=1;" edge="1" parent="1" source="VyYTztg2lx75sVMPbfsh-43" target="VyYTztg2lx75sVMPbfsh-12">
          <mxGeometry relative="1" as="geometry">
            <mxPoint x="510" y="14" as="sourcePoint" />
          </mxGeometry>
        </mxCell>
        <mxCell id="VyYTztg2lx75sVMPbfsh-14" value="" style="edgeStyle=orthogonalEdgeStyle;rounded=0;orthogonalLoop=1;jettySize=auto;html=1;" edge="1" parent="1" source="VyYTztg2lx75sVMPbfsh-9" target="VyYTztg2lx75sVMPbfsh-12">
          <mxGeometry relative="1" as="geometry" />
        </mxCell>
        <mxCell id="VyYTztg2lx75sVMPbfsh-15" value="&lt;div&gt;Vector&lt;/div&gt;&lt;div&gt;DB&lt;/div&gt;" style="shape=datastore;whiteSpace=wrap;html=1;" vertex="1" parent="1">
          <mxGeometry x="604.25" y="65" width="70" height="70" as="geometry" />
        </mxCell>
        <mxCell id="VyYTztg2lx75sVMPbfsh-16" value="" style="edgeStyle=orthogonalEdgeStyle;rounded=0;orthogonalLoop=1;jettySize=auto;html=1;" edge="1" parent="1" source="VyYTztg2lx75sVMPbfsh-17">
          <mxGeometry relative="1" as="geometry">
            <mxPoint x="675" y="540" as="targetPoint" />
          </mxGeometry>
        </mxCell>
        <mxCell id="VyYTztg2lx75sVMPbfsh-17" value="User" style="sketch=0;outlineConnect=0;fontColor=#232F3E;gradientColor=none;fillColor=#232F3D;strokeColor=none;dashed=0;verticalLabelPosition=bottom;verticalAlign=top;align=center;html=1;fontSize=12;fontStyle=0;aspect=fixed;pointerEvents=1;shape=mxgraph.aws4.user;" vertex="1" parent="1">
          <mxGeometry x="715" y="510" width="60" height="60" as="geometry" />
        </mxCell>
        <mxCell id="VyYTztg2lx75sVMPbfsh-18" value="" style="group;align=left;" vertex="1" connectable="0" parent="1">
          <mxGeometry x="604.25" y="502" width="82.5" height="83" as="geometry" />
        </mxCell>
        <mxCell id="VyYTztg2lx75sVMPbfsh-19" value="History" style="html=1;verticalLabelPosition=bottom;align=center;labelBackgroundColor=#ffffff;verticalAlign=top;strokeWidth=2;strokeColor=#666666;shadow=0;dashed=0;shape=mxgraph.ios7.icons.documents;fillColor=#f5f5f5;fontColor=#333333;" vertex="1" parent="VyYTztg2lx75sVMPbfsh-18">
          <mxGeometry x="60" y="45" width="22.5" height="30" as="geometry" />
        </mxCell>
        <mxCell id="VyYTztg2lx75sVMPbfsh-20" value="Query" style="sketch=0;outlineConnect=0;fontColor=#232F3E;gradientColor=none;fillColor=#232F3D;strokeColor=none;dashed=0;verticalLabelPosition=bottom;verticalAlign=top;align=center;html=1;fontSize=12;fontStyle=0;aspect=fixed;pointerEvents=1;shape=mxgraph.aws4.question;" vertex="1" parent="VyYTztg2lx75sVMPbfsh-18">
          <mxGeometry x="15" y="5" width="41" height="78" as="geometry" />
        </mxCell>
        <mxCell id="VyYTztg2lx75sVMPbfsh-21" value="" style="edgeStyle=orthogonalEdgeStyle;rounded=0;orthogonalLoop=1;jettySize=auto;html=1;" edge="1" parent="1" source="VyYTztg2lx75sVMPbfsh-45" target="VyYTztg2lx75sVMPbfsh-25">
          <mxGeometry relative="1" as="geometry">
            <mxPoint x="435" y="415" as="sourcePoint" />
          </mxGeometry>
        </mxCell>
        <mxCell id="VyYTztg2lx75sVMPbfsh-22" value="" style="edgeStyle=orthogonalEdgeStyle;rounded=0;orthogonalLoop=1;jettySize=auto;html=1;" edge="1" parent="1" source="VyYTztg2lx75sVMPbfsh-45" target="VyYTztg2lx75sVMPbfsh-38">
          <mxGeometry relative="1" as="geometry">
            <mxPoint x="365" y="415" as="sourcePoint" />
          </mxGeometry>
        </mxCell>
        <mxCell id="VyYTztg2lx75sVMPbfsh-23" value="Yes" style="edgeStyle=orthogonalEdgeStyle;rounded=0;orthogonalLoop=1;jettySize=auto;html=1;exitX=0.5;exitY=0;exitDx=0;exitDy=0;entryX=0.497;entryY=0.947;entryDx=0;entryDy=0;entryPerimeter=0;" edge="1" parent="1" source="VyYTztg2lx75sVMPbfsh-25" target="VyYTztg2lx75sVMPbfsh-30">
          <mxGeometry relative="1" as="geometry">
            <mxPoint x="639" y="276" as="targetPoint" />
          </mxGeometry>
        </mxCell>
        <mxCell id="VyYTztg2lx75sVMPbfsh-24" value="No" style="edgeStyle=elbowEdgeStyle;rounded=0;orthogonalLoop=1;jettySize=auto;html=1;exitX=0;exitY=0.25;exitDx=0;exitDy=0;entryX=1;entryY=0.75;entryDx=0;entryDy=0;" edge="1" parent="1" source="VyYTztg2lx75sVMPbfsh-25" target="VyYTztg2lx75sVMPbfsh-34">
          <mxGeometry relative="1" as="geometry">
            <mxPoint x="500" y="290" as="targetPoint" />
            <Array as="points">
              <mxPoint x="480" y="320" />
            </Array>
          </mxGeometry>
        </mxCell>
        <mxCell id="VyYTztg2lx75sVMPbfsh-25" value="1 Check: new documents?" style="shape=hexagon;perimeter=hexagonPerimeter2;whiteSpace=wrap;html=1;size=0.25" vertex="1" parent="1">
          <mxGeometry x="589.5" y="390" width="100" height="50" as="geometry" />
        </mxCell>
        <mxCell id="VyYTztg2lx75sVMPbfsh-26" value="" style="edgeStyle=orthogonalEdgeStyle;rounded=0;orthogonalLoop=1;jettySize=auto;html=1;" edge="1" parent="1" target="VyYTztg2lx75sVMPbfsh-25" source="VyYTztg2lx75sVMPbfsh-20">
          <mxGeometry relative="1" as="geometry">
            <mxPoint x="640" y="505" as="sourcePoint" />
          </mxGeometry>
        </mxCell>
        <mxCell id="VyYTztg2lx75sVMPbfsh-27" value="&lt;div&gt;Sparse&lt;/div&gt;&lt;div&gt;BM25&lt;br&gt;&lt;/div&gt;" style="shape=datastore;whiteSpace=wrap;html=1;" vertex="1" parent="1">
          <mxGeometry x="604.25" y="12" width="70" height="70" as="geometry" />
        </mxCell>
        <mxCell id="VyYTztg2lx75sVMPbfsh-28" value="" style="edgeStyle=orthogonalEdgeStyle;rounded=0;orthogonalLoop=1;jettySize=auto;html=1;" edge="1" parent="1" source="VyYTztg2lx75sVMPbfsh-30" target="VyYTztg2lx75sVMPbfsh-15">
          <mxGeometry relative="1" as="geometry" />
        </mxCell>
        <mxCell id="VyYTztg2lx75sVMPbfsh-29" value="" style="edgeStyle=orthogonalEdgeStyle;rounded=0;orthogonalLoop=1;jettySize=auto;html=1;" edge="1" parent="1" source="VyYTztg2lx75sVMPbfsh-30" target="VyYTztg2lx75sVMPbfsh-42">
          <mxGeometry relative="1" as="geometry" />
        </mxCell>
        <mxCell id="VyYTztg2lx75sVMPbfsh-30" value="&lt;div&gt;2 Get&lt;/div&gt;&lt;div&gt;Documents&lt;/div&gt;" style="html=1;whiteSpace=wrap;aspect=fixed;shape=isoRectangle;" vertex="1" parent="1">
          <mxGeometry x="589.5" y="210" width="100" height="60" as="geometry" />
        </mxCell>
        <mxCell id="VyYTztg2lx75sVMPbfsh-31" style="edgeStyle=orthogonalEdgeStyle;rounded=0;orthogonalLoop=1;jettySize=auto;html=1;exitX=0.85;exitY=0.95;exitDx=0;exitDy=0;exitPerimeter=0;entryX=1.006;entryY=0.543;entryDx=0;entryDy=0;entryPerimeter=0;" edge="1" parent="1" source="VyYTztg2lx75sVMPbfsh-15" target="VyYTztg2lx75sVMPbfsh-30">
          <mxGeometry relative="1" as="geometry" />
        </mxCell>
        <mxCell id="VyYTztg2lx75sVMPbfsh-32" value="No" style="edgeStyle=orthogonalEdgeStyle;rounded=0;orthogonalLoop=1;jettySize=auto;html=1;" edge="1" parent="1" source="VyYTztg2lx75sVMPbfsh-34" target="VyYTztg2lx75sVMPbfsh-35">
          <mxGeometry relative="1" as="geometry" />
        </mxCell>
        <mxCell id="VyYTztg2lx75sVMPbfsh-33" value="" style="edgeStyle=orthogonalEdgeStyle;rounded=0;orthogonalLoop=1;jettySize=auto;html=1;" edge="1" parent="1" source="VyYTztg2lx75sVMPbfsh-34" target="VyYTztg2lx75sVMPbfsh-37">
          <mxGeometry relative="1" as="geometry" />
        </mxCell>
        <mxCell id="VyYTztg2lx75sVMPbfsh-34" value="3 Check: answer in documents?" style="shape=hexagon;perimeter=hexagonPerimeter2;whiteSpace=wrap;html=1;size=0.25" vertex="1" parent="1">
          <mxGeometry x="333" y="210" width="135" height="60" as="geometry" />
        </mxCell>
        <mxCell id="VyYTztg2lx75sVMPbfsh-35" value="&lt;div&gt;4 Rewrite&lt;/div&gt;&lt;div&gt;Query&lt;br&gt;&lt;/div&gt;" style="html=1;whiteSpace=wrap;aspect=fixed;shape=isoRectangle;" vertex="1" parent="1">
          <mxGeometry x="350" y="302" width="100" height="60" as="geometry" />
        </mxCell>
        <mxCell id="VyYTztg2lx75sVMPbfsh-36" value="" style="edgeStyle=orthogonalEdgeStyle;rounded=0;orthogonalLoop=1;jettySize=auto;html=1;" edge="1" parent="1" source="VyYTztg2lx75sVMPbfsh-37" target="VyYTztg2lx75sVMPbfsh-38">
          <mxGeometry relative="1" as="geometry" />
        </mxCell>
        <mxCell id="VyYTztg2lx75sVMPbfsh-37" value="&lt;div style=&quot;font-size: 11px;&quot;&gt;5 Inject documents&lt;/div&gt;&lt;div style=&quot;font-size: 11px;&quot;&gt;into prompt&lt;br style=&quot;font-size: 11px;&quot;&gt;&lt;/div&gt;" style="html=1;whiteSpace=wrap;aspect=fixed;shape=isoRectangle;fontSize=11;" vertex="1" parent="1">
          <mxGeometry x="130" y="200" width="133.34" height="80" as="geometry" />
        </mxCell>
        <mxCell id="VyYTztg2lx75sVMPbfsh-38" value="&lt;div style=&quot;font-size: 12px;&quot;&gt;Answer query&lt;/div&gt;&lt;div style=&quot;font-size: 12px;&quot;&gt;with documents&lt;br style=&quot;font-size: 12px;&quot;&gt;&lt;/div&gt;" style="html=1;whiteSpace=wrap;aspect=fixed;shape=isoRectangle;fontSize=12;" vertex="1" parent="1">
          <mxGeometry x="130" y="375" width="133.34" height="80" as="geometry" />
        </mxCell>
        <mxCell id="VyYTztg2lx75sVMPbfsh-39" value="Final answer" style="edgeStyle=orthogonalEdgeStyle;rounded=0;orthogonalLoop=1;jettySize=auto;html=1;entryX=0.029;entryY=0.594;entryDx=0;entryDy=0;entryPerimeter=0;" edge="1" parent="1" source="VyYTztg2lx75sVMPbfsh-38">
          <mxGeometry relative="1" as="geometry">
            <mxPoint x="607.03" y="546.5799999999999" as="targetPoint" />
            <Array as="points">
              <mxPoint x="197" y="547" />
            </Array>
          </mxGeometry>
        </mxCell>
        <mxCell id="VyYTztg2lx75sVMPbfsh-40" value="History" style="html=1;verticalLabelPosition=bottom;align=center;labelBackgroundColor=#ffffff;verticalAlign=top;strokeWidth=2;strokeColor=#666666;shadow=0;dashed=0;shape=mxgraph.ios7.icons.documents;fillColor=#f5f5f5;fontColor=#333333;" vertex="1" parent="1">
          <mxGeometry x="350" y="560" width="22.5" height="30" as="geometry" />
        </mxCell>
        <mxCell id="VyYTztg2lx75sVMPbfsh-41" value="" style="edgeStyle=orthogonalEdgeStyle;rounded=0;orthogonalLoop=1;jettySize=auto;html=1;" edge="1" parent="1" source="VyYTztg2lx75sVMPbfsh-42" target="VyYTztg2lx75sVMPbfsh-34">
          <mxGeometry relative="1" as="geometry" />
        </mxCell>
        <mxCell id="VyYTztg2lx75sVMPbfsh-42" value="Rerank including feedback" style="rounded=1;whiteSpace=wrap;html=1;" vertex="1" parent="1">
          <mxGeometry x="500" y="210" width="70" height="60" as="geometry" />
        </mxCell>
        <mxCell id="VyYTztg2lx75sVMPbfsh-43" value="&lt;div&gt;Embedding&lt;/div&gt;&lt;div&gt;Model&lt;/div&gt;" style="sketch=0;outlineConnect=0;fontColor=#232F3E;gradientColor=none;fillColor=#01A88D;strokeColor=none;dashed=0;verticalLabelPosition=bottom;verticalAlign=top;align=center;html=1;fontSize=12;fontStyle=0;aspect=fixed;pointerEvents=1;shape=mxgraph.aws4.sagemaker_model;" vertex="1" parent="1">
          <mxGeometry x="485" y="-42" width="50" height="50" as="geometry" />
        </mxCell>
        <mxCell id="VyYTztg2lx75sVMPbfsh-44" value="" style="edgeStyle=orthogonalEdgeStyle;rounded=0;orthogonalLoop=1;jettySize=auto;html=1;" edge="1" parent="1" source="VyYTztg2lx75sVMPbfsh-45" target="VyYTztg2lx75sVMPbfsh-35">
          <mxGeometry relative="1" as="geometry" />
        </mxCell>
        <mxCell id="VyYTztg2lx75sVMPbfsh-45" value="&lt;div&gt;Chat&lt;/div&gt;&lt;div&gt;LLM&lt;/div&gt;" style="sketch=0;outlineConnect=0;fontColor=#232F3E;gradientColor=none;fillColor=#01A88D;strokeColor=none;dashed=0;verticalLabelPosition=bottom;verticalAlign=top;align=center;html=1;fontSize=12;fontStyle=0;aspect=fixed;pointerEvents=1;shape=mxgraph.aws4.sagemaker_model;" vertex="1" parent="1">
          <mxGeometry x="370" y="385" width="60" height="60" as="geometry" />
        </mxCell>
        <mxCell id="VyYTztg2lx75sVMPbfsh-46" value="" style="endArrow=none;dashed=1;html=1;rounded=0;" edge="1" parent="1">
          <mxGeometry width="50" height="50" relative="1" as="geometry">
            <mxPoint x="20" y="190" as="sourcePoint" />
            <mxPoint x="820" y="190" as="targetPoint" />
          </mxGeometry>
        </mxCell>
        <mxCell id="VyYTztg2lx75sVMPbfsh-47" value="&lt;b&gt;&lt;font style=&quot;font-size: 20px;&quot;&gt;Indexing&lt;/font&gt;&lt;/b&gt;" style="text;html=1;align=center;verticalAlign=middle;resizable=0;points=[];autosize=1;strokeColor=#82b366;fillColor=#d5e8d4;" vertex="1" parent="1">
          <mxGeometry x="30" y="12" width="110" height="40" as="geometry" />
        </mxCell>
        <mxCell id="VyYTztg2lx75sVMPbfsh-48" value="&lt;font style=&quot;font-size: 20px;&quot;&gt;&lt;b&gt;Querying&lt;/b&gt;&lt;/font&gt;" style="text;html=1;align=center;verticalAlign=middle;resizable=0;points=[];autosize=1;strokeColor=#82b366;fillColor=#d5e8d4;" vertex="1" parent="1">
          <mxGeometry x="715" y="443" width="110" height="40" as="geometry" />
        </mxCell>
        <mxCell id="VyYTztg2lx75sVMPbfsh-49" value="Feedback" style="html=1;verticalLabelPosition=bottom;align=center;labelBackgroundColor=#ffffff;verticalAlign=top;strokeWidth=2;strokeColor=#666666;shadow=0;dashed=0;shape=mxgraph.ios7.icons.documents;fillColor=#f5f5f5;fontColor=#333333;" vertex="1" parent="1">
          <mxGeometry x="674.25" y="483" width="22.5" height="30" as="geometry" />
        </mxCell>
        <mxCell id="VyYTztg2lx75sVMPbfsh-53" value="LLM Updater" style="html=1;whiteSpace=wrap;aspect=fixed;shape=isoRectangle;" vertex="1" parent="1">
          <mxGeometry x="461.67" y="440" width="108.33" height="65" as="geometry" />
        </mxCell>
        <mxCell id="VyYTztg2lx75sVMPbfsh-54" value="" style="endArrow=classic;html=1;rounded=0;entryX=0.132;entryY=0.327;entryDx=0;entryDy=0;entryPerimeter=0;" edge="1" parent="1" source="VyYTztg2lx75sVMPbfsh-45" target="VyYTztg2lx75sVMPbfsh-53">
          <mxGeometry width="50" height="50" relative="1" as="geometry">
            <mxPoint x="350" y="500" as="sourcePoint" />
            <mxPoint x="450" y="460" as="targetPoint" />
          </mxGeometry>
        </mxCell>
        <mxCell id="VyYTztg2lx75sVMPbfsh-56" value="" style="endArrow=classic;html=1;rounded=0;exitX=0.248;exitY=0.22;exitDx=0;exitDy=0;exitPerimeter=0;" edge="1" parent="1" source="VyYTztg2lx75sVMPbfsh-53" target="VyYTztg2lx75sVMPbfsh-45">
          <mxGeometry width="50" height="50" relative="1" as="geometry">
            <mxPoint x="460" y="450" as="sourcePoint" />
            <mxPoint x="440" y="430" as="targetPoint" />
          </mxGeometry>
        </mxCell>
        <mxCell id="VyYTztg2lx75sVMPbfsh-59" style="edgeStyle=orthogonalEdgeStyle;rounded=0;orthogonalLoop=1;jettySize=auto;html=1;" edge="1" parent="1" source="VyYTztg2lx75sVMPbfsh-57" target="VyYTztg2lx75sVMPbfsh-53">
          <mxGeometry relative="1" as="geometry" />
        </mxCell>
        <mxCell id="VyYTztg2lx75sVMPbfsh-60" style="edgeStyle=orthogonalEdgeStyle;rounded=0;orthogonalLoop=1;jettySize=auto;html=1;entryX=0.695;entryY=0.817;entryDx=0;entryDy=0;entryPerimeter=0;" edge="1" parent="1" source="VyYTztg2lx75sVMPbfsh-57" target="VyYTztg2lx75sVMPbfsh-30">
          <mxGeometry relative="1" as="geometry">
            <mxPoint x="700" y="300" as="targetPoint" />
            <Array as="points">
              <mxPoint x="754" y="260" />
            </Array>
          </mxGeometry>
        </mxCell>
        <mxCell id="VyYTztg2lx75sVMPbfsh-57" value="&lt;div&gt;Feedback DB&lt;/div&gt;" style="shape=datastore;whiteSpace=wrap;html=1;" vertex="1" parent="1">
          <mxGeometry x="719.16" y="330" width="70" height="70" as="geometry" />
        </mxCell>
        <mxCell id="VyYTztg2lx75sVMPbfsh-58" style="edgeStyle=orthogonalEdgeStyle;rounded=0;orthogonalLoop=1;jettySize=auto;html=1;entryX=0;entryY=0.7;entryDx=0;entryDy=0;" edge="1" parent="1" source="VyYTztg2lx75sVMPbfsh-20" target="VyYTztg2lx75sVMPbfsh-57">
          <mxGeometry relative="1" as="geometry">
            <Array as="points">
              <mxPoint x="650" y="470" />
              <mxPoint x="700" y="470" />
              <mxPoint x="700" y="379" />
            </Array>
          </mxGeometry>
        </mxCell>
      </root>
    </mxGraphModel>
  </diagram>
</mxfile>
